# xmcd
#
# Track frame offsets:
#	150
#	14030
#	25125
#	36247
#	45375
#	52017
#	62085
#	75897
#	84840
#	93562
#	99720
#	105730
#	116627
#	130777
#	141127
#	150615
#	161470
#	168515
#	176145
#	179660
#	204917
#	223085
#	236452
#	259285
#	273675
#	286497
#	291407
#	298017
#
# Disc length: 4211 seconds
#
# Revision: 1
# Processed by: cddbd v1.4PL0 Copyright (c) Steve Scherf et al.
# Submitted via: audiograbber 1.80
#
DISCID=a110711c
DTITLE=dick curless - a tomstone every mile disc 7
DYEAR=1900
DGENRE=
TTITLE0=china nights (1) 1996
TTITLE1=the golden rocket 1996
TTITLE2=just a closer walk with thee 1996
TTITLE3=i'm in love again 1996
TTITLE4=i walk the line 1996
TTITLE5=something's wrong with you 1996
TTITLE6=china nights (2) 1996
TTITLE7=evil hearted man blues 1996
TTITLE8=marianne 1996
TTITLE9=blues in my mind (1) 1996
TTITLE10=down by the riverside 1996
TTITLE11=oh, lonesome me 1996
TTITLE12=where is youre heart tonight 1996
TTITLE13=i can get along without you now 1996
TTITLE14=nine pound hammer (2) 1996
TTITLE15=what do i care 1996
TTITLE16=there's been a change in me 1996
TTITLE17=after all i ain't got much to loose 1996
TTITLE18=sunny side of the mountain 1996
TTITLE19=monday night 1996
TTITLE20=nine pound hammer 1996
TTITLE21=china nights 1996
TTITLE22=just a little lovin' 1996
TTITLE23=i am a pilgrin 1996
TTITLE24=tuck me to sleep in my old kentucky home 1996
TTITLE25=montreal express (commercial) 1996
TTITLE26=station breaks 1996
TTITLE27=billy d. hunter: the tumbleweed kid (tribute to dick curless) 1994
EXTD=
EXTT0=
EXTT1=
EXTT2=
EXTT3=
EXTT4=
EXTT5=
EXTT6=
EXTT7=
EXTT8=
EXTT9=
EXTT10=
EXTT11=
EXTT12=
EXTT13=
EXTT14=
EXTT15=
EXTT16=
EXTT17=
EXTT18=
EXTT19=
EXTT20=
EXTT21=
EXTT22=
EXTT23=
EXTT24=
EXTT25=
EXTT26=
EXTT27=
PLAYORDER=
